<?xml version="1.0" standalone="no"?><!DOCTYPE svg PUBLIC "-//W3C//DTD SVG 1.1//EN" "http://www.w3.org/Graphics/SVG/1.1/DTD/svg11.dtd"><svg t="1653723184526" class="icon" viewBox="0 0 1024 1024" version="1.1" xmlns="http://www.w3.org/2000/svg" p-id="1471" xmlns:xlink="http://www.w3.org/1999/xlink" width="200" height="200"><defs><style type="text/css">@font-face { font-family: feedback-iconfont; src: url("//at.alicdn.com/t/font_1031158_u69w8yhxdu.woff2?t=1630033759944") format("woff2"), url("//at.alicdn.com/t/font_1031158_u69w8yhxdu.woff?t=1630033759944") format("woff"), url("//at.alicdn.com/t/font_1031158_u69w8yhxdu.ttf?t=1630033759944") format("truetype"); }
</style></defs><path d="M66 275h894v510s-219.111-21.023-447.945 10C289.4 765.594 66 785 66 785V275z" fill="#4F7AC0" p-id="1472"></path><path d="M91 271.43s216.564-26.861 420.825 9.991C730.965 245.514 933 271.43 933 271.43v509.578S722.97 755.459 512.384 791C303.422 755.822 91 781.008 91 781.008V271.43z" fill="#96B0DA" p-id="1473"></path><path d="M108 269.43s207.819-26.861 403.832 9.991C722.123 243.514 916 269.43 916 269.43v509.578S714.451 753.459 512.369 789C311.845 753.822 108 779.008 108 779.008V269.43z" fill="#D7DFF3" p-id="1474"></path><path d="M127 267s198.046-26.883 384.84 10C712.241 241.062 897 267 897 267v510s-192.07-25.57-384.648 10C321.258 751.793 127 777 127 777V267z" fill="#F4F6FB" p-id="1475"></path><path d="M511 277h4v514h-4z" fill="#4F7AC0" p-id="1476"></path><path d="M747 255s20.909-1.081 42.682-0.124C813.332 255.916 838 259 838 259s-2 17.466-2 55.617C836 365.192 838 440 838 440l-47-42-44 39s-4-71.564-4-121.625c0-39.736 4-60.375 4-60.375z" fill="#FFD098" p-id="1477"></path><path d="M171 402s57.526-6 107.359-6c54.92 0 95.641 6 95.641 6l7 25a922.7 922.7 0 0 0-102.566-6C228.573 421 171 427 171 427v-25z" fill="#FF8797" p-id="1478"></path><path d="M171 578s37.526-6 87.359-6c54.92 0 86.641 3 86.641 3l7 25s-38.669-3-93.566-3c-49.861 0-87.434 6-87.434 6v-25z" fill="#FF8797" p-id="1479"></path><path d="M171 489s68.121-7 139.548-7c78.718 0 151.419 7 151.419 7L452 514s-62.66-7-141.345-7C239.188 507 171 514 171 514v-25z" fill="#FF8797" p-id="1480"></path></svg>