<?xml version="1.0" standalone="no"?><!DOCTYPE svg PUBLIC "-//W3C//DTD SVG 1.1//EN" "http://www.w3.org/Graphics/SVG/1.1/DTD/svg11.dtd"><svg t="1653723193102" class="icon" viewBox="0 0 1024 1024" version="1.1" xmlns="http://www.w3.org/2000/svg" p-id="1623" xmlns:xlink="http://www.w3.org/1999/xlink" width="200" height="200"><defs><style type="text/css">@font-face { font-family: feedback-iconfont; src: url("//at.alicdn.com/t/font_1031158_u69w8yhxdu.woff2?t=1630033759944") format("woff2"), url("//at.alicdn.com/t/font_1031158_u69w8yhxdu.woff?t=1630033759944") format("woff"), url("//at.alicdn.com/t/font_1031158_u69w8yhxdu.ttf?t=1630033759944") format("truetype"); }
</style></defs><path d="M367 930V64l629 866H367z m103-113h305L470 397v420z" fill="#FAC87C" p-id="1624"></path><path d="M291 693m-250 0a250 250 0 1 0 500 0 250 250 0 1 0-500 0Z" fill="#FFDAD9" p-id="1625"></path><path d="M223.567 593.357l-4.187-2.731 202.053-290.983 4.187 2.731z" fill="#312B6A" p-id="1626"></path><path d="M725.9 377.192l-1.274 4.835-295.807-85.14 1.274-4.835z" fill="#312B6A" p-id="1627"></path><path d="M742.716 380.775l-4.341-2.481L878.174 147.6l4.341 2.482z" fill="#312B6A" p-id="1628"></path><path d="M194 575h40v40h-40z" fill="#312B6A" p-id="1629"></path><path d="M198 579h32v32h-32z" fill="#FFF6E9" p-id="1630"></path><path d="M409 280h40v40h-40z" fill="#312B6A" p-id="1631"></path><path d="M413 284h32v32h-32z" fill="#FFF6E9" p-id="1632"></path><path d="M869 122h40v40h-40z" fill="#312B6A" p-id="1633"></path><path d="M873 126h32v32h-32z" fill="#FFF6E9" p-id="1634"></path><path d="M713 359h40v40h-40z" fill="#312B6A" p-id="1635"></path><path d="M713 363h32v32h-32z" fill="#312B6A" p-id="1636"></path></svg>