<?xml version="1.0" standalone="no"?><!DOCTYPE svg PUBLIC "-//W3C//DTD SVG 1.1//EN" "http://www.w3.org/Graphics/SVG/1.1/DTD/svg11.dtd"><svg t="1653722631206" class="icon" viewBox="0 0 1024 1024" version="1.1" xmlns="http://www.w3.org/2000/svg" p-id="1170" xmlns:xlink="http://www.w3.org/1999/xlink" width="200" height="200"><defs><style type="text/css">@font-face { font-family: feedback-iconfont; src: url("//at.alicdn.com/t/font_1031158_u69w8yhxdu.woff2?t=1630033759944") format("woff2"), url("//at.alicdn.com/t/font_1031158_u69w8yhxdu.woff?t=1630033759944") format("woff"), url("//at.alicdn.com/t/font_1031158_u69w8yhxdu.ttf?t=1630033759944") format("truetype"); }
</style></defs><path d="M755.024 106.878L916.1 267.9a37.169 37.169 0 0 1 0 52.578l-51.629 51.61-213.671-213.6 51.63-51.61a37.2 37.2 0 0 1 52.594 0z" fill="#EF556F" p-id="1171"></path><path d="M651.8 157.488l213.677 213.6-42.677 42.656-213.676-213.6z" fill="#13174E" p-id="1172"></path><path d="M209.279 599.844l76.072-76.044 211.821 215.452-74.217 74.189-284.948 71.246z" fill="#FFECE4" p-id="1173"></path><path d="M366.393 766.187L138.8 883.358l281.888-68.187 57.529-59.15-45.897-55.736z" fill="#FFD8C7" p-id="1174"></path><path d="M207.831 600.752L138.8 885l119.985-231.67 86.292-86.261-51.777-51.756z" fill="#FFECE4" p-id="1175"></path><path d="M254.907 655.742L138.8 884.358l227.6-117.171 70.857-70.831-113.13-109.8z" fill="#FEE2D6" p-id="1176"></path><path d="M217.391 863.887l-79.384 20.8 19.986-80.177z" fill="#5C1611" p-id="1177"></path><path d="M367.319 655.815a78.8 78.8 0 0 0-111.4-0.078L660.4 251.4l111.481 111.445L367.4 767.179a78.725 78.725 0 0 0-0.081-111.364z" fill="#FFCB78" p-id="1178"></path><path d="M285.851 574.377c-14.11-14.1-50.469-0.627-81.211 30.1l404.483-404.33 51.1 51.077-404.486 404.334c30.742-30.73 44.224-67.076 30.114-81.181z" fill="#FFDCA5" p-id="1179"></path><path d="M448.431 736.9c-14.11-14.105-50.469-0.627-81.211 30.1L771.7 362.667l51.1 51.077-404.483 404.334c30.741-30.73 44.224-67.078 30.114-81.178z" fill="#FCB94F" p-id="1180"></path></svg>