<?xml version="1.0" standalone="no"?><!DOCTYPE svg PUBLIC "-//W3C//DTD SVG 1.1//EN" "http://www.w3.org/Graphics/SVG/1.1/DTD/svg11.dtd"><svg t="1653723082861" class="icon" viewBox="0 0 1024 1024" version="1.1" xmlns="http://www.w3.org/2000/svg" p-id="1323" xmlns:xlink="http://www.w3.org/1999/xlink" width="200" height="200"><defs><style type="text/css">@font-face { font-family: feedback-iconfont; src: url("//at.alicdn.com/t/font_1031158_u69w8yhxdu.woff2?t=1630033759944") format("woff2"), url("//at.alicdn.com/t/font_1031158_u69w8yhxdu.woff?t=1630033759944") format("woff"), url("//at.alicdn.com/t/font_1031158_u69w8yhxdu.ttf?t=1630033759944") format("truetype"); }
</style></defs><path d="M512 512m-384 0a384 384 0 1 0 768 0 384 384 0 1 0-768 0Z" fill="#FFEFDC" p-id="1324"></path><path d="M268 623m-68 0a68 68 0 1 0 136 0 68 68 0 1 0-136 0Z" fill="#FFB886" p-id="1325"></path><path d="M288 386m-68 0a68 68 0 1 0 136 0 68 68 0 1 0-136 0Z" fill="#FC8346" p-id="1326"></path><path d="M502 252m-68 0a68 68 0 1 0 136 0 68 68 0 1 0-136 0Z" fill="#F35E40" p-id="1327"></path><path d="M738 363m-68 0a68 68 0 1 0 136 0 68 68 0 1 0-136 0Z" fill="#3A3379" p-id="1328"></path></svg>