<svg width="73" height="73" viewBox="0 0 73 73" fill="none" xmlns="http://www.w3.org/2000/svg">
<path d="M6.84375 22.3848H66.0137V58.0293H6.84375V22.3848Z" fill="#9FCBFF"/>
<path d="M6.91504 35.0742H66.085V48.1914H6.91504V35.0742Z" fill="#334CB2"/>
<path d="M10.4082 20.3174H18.9629V22.4561H10.4082V20.3174Z" fill="#E74E63"/>
<path d="M23.9531 41.6328C23.9531 44.9415 25.2675 48.1148 27.6071 50.4544C29.9468 52.794 33.12 54.1084 36.4287 54.1084C39.7374 54.1084 42.9107 52.794 45.2503 50.4544C47.5899 48.1148 48.9043 44.9415 48.9043 41.6328C48.9043 38.3241 47.5899 35.1509 45.2503 32.8112C42.9107 30.4716 39.7374 29.1572 36.4287 29.1572C33.12 29.1572 29.9468 30.4716 27.6071 32.8112C25.2675 35.1509 23.9531 38.3241 23.9531 41.6328Z" fill="white"/>
<path d="M26.4482 41.6328C26.4482 42.9435 26.7064 44.2413 27.208 45.4522C27.7095 46.6631 28.4447 47.7633 29.3715 48.6901C30.2982 49.6168 31.3985 50.352 32.6094 50.8536C33.8202 51.3551 35.1181 51.6133 36.4287 51.6133C37.7394 51.6133 39.0372 51.3551 40.2481 50.8536C41.459 50.352 42.5592 49.6168 43.486 48.6901C44.4127 47.7633 45.1479 46.6631 45.6495 45.4522C46.151 44.2413 46.4092 42.9435 46.4092 41.6328C46.4092 40.3222 46.151 39.0243 45.6495 37.8135C45.1479 36.6026 44.4127 35.5023 43.486 34.5756C42.5592 33.6488 41.459 32.9136 40.2481 32.4121C39.0372 31.9105 37.7394 31.6523 36.4287 31.6523C35.1181 31.6523 33.8202 31.9105 32.6094 32.4121C31.3985 32.9136 30.2982 33.6488 29.3715 34.5756C28.4447 35.5023 27.7095 36.6026 27.208 37.8135C26.7064 39.0243 26.4482 40.3222 26.4482 41.6328Z" fill="#2D5C93"/>
<path d="M31.082 41.6328C31.082 43.0508 31.6453 44.4108 32.648 45.4135C33.6507 46.4162 35.0107 46.9795 36.4287 46.9795C37.8467 46.9795 39.2067 46.4162 40.2094 45.4135C41.2121 44.4108 41.7754 43.0508 41.7754 41.6328C41.7754 40.2148 41.2121 38.8548 40.2094 37.8521C39.2067 36.8494 37.8467 36.2861 36.4287 36.2861C35.0107 36.2861 33.6507 36.8494 32.648 37.8521C31.6453 38.8548 31.082 40.2148 31.082 41.6328Z" fill="#2A283E"/>
<path d="M53.6807 25.7354H61.9502L61.2373 29.2998H52.9678L53.6807 25.7354Z" fill="#25205B"/>
<path d="M29.6562 17.3945H43.2012L44.627 22.3848H28.2305L29.6562 17.3945Z" fill="#7CB0EE"/>
</svg>
