<?xml version="1.0" standalone="no"?><!DOCTYPE svg PUBLIC "-//W3C//DTD SVG 1.1//EN" "http://www.w3.org/Graphics/SVG/1.1/DTD/svg11.dtd"><svg t="1653721838743" class="icon" viewBox="0 0 1024 1024" version="1.1" xmlns="http://www.w3.org/2000/svg" p-id="1018" xmlns:xlink="http://www.w3.org/1999/xlink" width="200" height="200"><defs><style type="text/css">@font-face { font-family: feedback-iconfont; src: url("//at.alicdn.com/t/font_1031158_u69w8yhxdu.woff2?t=1630033759944") format("woff2"), url("//at.alicdn.com/t/font_1031158_u69w8yhxdu.woff?t=1630033759944") format("woff"), url("//at.alicdn.com/t/font_1031158_u69w8yhxdu.ttf?t=1630033759944") format("truetype"); }
</style></defs><path d="M512 71c151.878 0 275 123.122 275 275 0 92.395-72.793 149.508-115.451 224.011C635 633.841 634.609 770 512 770c-131.269 0-121.345-141.946-166.3-204.96C297.512 497.484 237 435.387 237 346c0-151.878 123.122-275 275-275z" fill="#FFE5C6" p-id="1019"></path><path d="M454 839h114v63a57 57 0 0 1-57 57 57 57 0 0 1-57-57v-63z" fill="#3D4288" p-id="1020"></path><path d="M511 921c-40.511 0-77.386-7.022-105-18.513v-192C433.614 721.978 470.489 729 511 729c41 0 78.279-7.193 106-18.934v192C589.279 913.807 552 921 511 921z" fill="#7579CD" p-id="1021"></path><path d="M511 921c-40.511 0-77.386-7.022-105-18.513v-63C433.614 850.978 470.489 858 511 858c41 0 78.279-7.193 106-18.934v63C589.279 913.807 552 921 511 921z" fill="#353A82" p-id="1022"></path><path d="M511 859c-40.511 0-77.386-7.022-105-18.513v-63C433.614 788.978 470.489 796 511 796c41 0 78.279-7.193 106-18.934v63C589.279 851.807 552 859 511 859z" fill="#5155AA" p-id="1023"></path><path d="M511 731c-40.511 0-77.386-7.022-105-18.513v-3.912c27.614-11.5 64.489-18.527 105-18.527 41 0 78.279 7.2 106 18.948v3.07C589.279 723.807 552 731 511 731z" fill="#FFDBB3" p-id="1024"></path><path d="M417 453v-5s46.219 35 92.945 35C557.708 483 606 448 606 448v5s-48.319 35-96.094 35C463.193 488 417 453 417 453z" fill="#F9BA24" p-id="1025"></path><path d="M508 488c-7.732 0-17-13.879-17-31s9.268-28 17-28 17 10.879 17 28-9.268 31-17 31z m0-52c-5.458 0-12 9.56-12 21.458S502.542 480 508 480s12-10.645 12-22.542S513.458 436 508 436z" fill="#F9BA24" p-id="1026"></path><path d="M402.784 417.3l7.727-0.071 64.7 241.481L475 713h-7l-0.511-54.224z" fill="#843636" p-id="1027"></path><path d="M619 416.08l-7.68-0.075L547 657.92V713h8l-0.317-55z" fill="#853636" p-id="1028"></path></svg>